# xmcd
#
# Track frame offsets:
#	150
#	20015
#	36477
#	56372
#	79015
#	97010
#	118297
#	137240
#	158850
#	174935
#	200125
#	228020
#	254720
#	286322
#	306423
#	325210
#
# Disc length: 4650 seconds
#
# Revision: 0
# Processed by: cddbd v1.5.2PL0 Copyright (c) Steve Scherf et al.
# Submitted via: VUPlayer 2.44
#
DISCID=eb122810
DTITLE=Scritti Politti - Cupid and Psyche '85
DYEAR=1985
DGENRE=80s
TTITLE0=Scritti Politti - The Word Girl
TTITLE1=Scritti Politti - Small Talk
TTITLE2=Scritti Politti - Absolute
TTITLE3=Scritti Politti - A Little Knowledge
TTITLE4=Scritti Politti - Don't Work That Hard
TTITLE5=Scritti Politti - Perfect Way
TTITLE6=Scritti Politti - Lover To Fall
TTITLE7=Scritti Politti - Wood Beez
TTITLE8=Scritti Politti - Hypnotize
TTITLE9=Scritti Politti - Flesh and Blood
TTITLE10=Scritti Politti - Absolute (Version)
TTITLE11=Scritti Politti - Wood Beez (Version)
TTITLE12=Richard Strange and The Engine Room - Damascus [extended] - Richard Stran
TTITLE12=ge
TTITLE13=Richard Strange and The Engine Room - The Haj Caravan
TTITLE14=Richard Strange and The Engine Room - Damascus
TTITLE15=Richard Strange and The Engine Room - Pioneering Surgery
EXTD=
EXTT0=
EXTT1=
EXTT2=
EXTT3=
EXTT4=
EXTT5=
EXTT6=
EXTT7=
EXTT8=
EXTT9=
EXTT10=
EXTT11=
EXTT12=
EXTT13=
EXTT14=
EXTT15=
PLAYORDER=
